<svg xmlns="http://www.w3.org/2000/svg" viewBox="0 0 150 90" width="350" height="210">
	<style>
		tspan { white-space:pre }
		.shp0 { fill: none;stroke: #000000;stroke-linecap:round;stroke-linejoin:round } 
		.shp1 { fill: #000000 } 
		.shp2 { fill: #000000;stroke: #000000;stroke-linecap:round;stroke-linejoin:round } 
	</style>
	<g id="Layer">
		<path id="Layer" class="shp0" d="M131.57 15.62L111.64 45.51" />
		<path id="Layer" class="shp0" d="M88.79 15.51L68.87 45.4" />
		<path id="Layer" class="shp1" d="M81.27 22L77.64 32.74L86.15 25.26L81.27 22Z" />
		<path id="Layer copy" class="shp1" d="M122.27 25L118.64 35.74L127.15 28.26L122.27 25Z" />
		<path id="Layer copy 2" class="shp1" d="M118.98 63.41L128.41 69.7L123.39 59.54L118.98 63.41Z" />
		<path id="Layer" class="shp0" d="M71.79 45.51C72.9 43.59 75.66 43.59 76.77 45.51C77.88 47.42 80.65 47.42 81.75 45.51C82.86 43.59 85.63 43.59 86.73 45.51C87.84 47.42 90.61 47.42 91.71 45.51C92.82 43.59 95.59 43.59 96.7 45.51C97.8 47.42 100.57 47.42 101.68 45.51C102.78 43.59 105.55 43.59 106.66 45.51C107.77 47.42 110.53 47.42 111.64 45.51" />
		<path id="Layer" class="shp0" d="M111.64 45.51L131.57 75.4" />
		<g id="Carpeta 1">
			<path id="Forma 1" class="shp0" d="M25.67 45.5L25.67 44.5L68.33 44.5L68.33 45.5L25.67 45.5Z" />
		</g>
	</g>
	<path id="W" fill="#000000" d="M95.24 50.06L92.6 59L91.16 59L89.61 53.32Q89.45 52.79 89.16 51.41Q89 52.14 88.88 52.64Q88.77 53.13 87.15 59L85.7 59L83.07 50.06L84.33 50.06L85.94 55.74Q86.22 56.8 86.47 57.93Q86.62 57.24 86.81 56.41Q87.02 55.58 88.58 50.06L89.74 50.06L91.3 55.62Q91.65 56.99 91.85 57.93L91.91 57.71Q92.08 56.98 92.19 56.52Q92.3 56.06 93.97 50.06L95.24 50.06Z" />
	<path id="+" fill="#000000" d="M100.72 52.14L98.03 52.14L98.03 54.86L97.1 54.86L97.1 52.14L94.4 52.14L94.4 51.21L97.1 51.21L97.1 48.5L98.03 48.5L98.03 51.21L100.72 51.21L100.72 52.14Z" />
	<path id="+ copy" fill="#000000" d="M143.72 26.14L141.03 26.14L141.03 28.86L140.1 28.86L140.1 26.14L137.4 26.14L137.4 25.21L140.1 25.21L140.1 22.5L141.03 22.5L141.03 25.21L143.72 25.21L143.72 26.14Z" />
	<g id="Layer">
		<path id="ν" fill="#000000" d="M89.35 6.63Q89.35 7.73 88.69 9.18Q88.04 10.61 86.9 12L85.82 12L83.35 5.13L84.55 5.13L86.52 11.02Q88.21 8.82 88.21 6.69Q88.21 5.83 87.9 5.13L89.02 5.13Q89.35 5.75 89.35 6.63Z" />
		<path id="ν copy" fill="#000000" d="M136.35 63.63Q136.35 64.73 135.69 66.18Q135.04 67.61 133.9 69L132.82 69L130.35 62.13L131.55 62.13L133.52 68.02Q135.21 65.82 135.21 63.69Q135.21 62.83 134.9 62.13L136.02 62.13Q136.35 62.75 136.35 63.63Z" />
	</g>
	<path id="µ" fill="#000000" d="M91.28 19.7L90.14 19.7L90.14 10.13L91.29 10.13L91.29 14.49Q91.29 15.36 91.63 15.81Q91.97 16.24 92.72 16.24Q93.54 16.24 94 15.69Q94.46 15.14 94.46 14.11L94.46 10.13L95.61 10.13L95.61 15.31Q95.61 15.79 95.72 16.02Q95.83 16.23 96.1 16.23Q96.26 16.23 96.44 16.18L96.44 17Q96.03 17.13 95.73 17.13Q95.15 17.13 94.84 16.83Q94.54 16.53 94.51 15.9L94.49 15.9Q93.82 17.13 92.6 17.13Q92.17 17.13 91.82 17Q91.48 16.87 91.28 16.63L91.28 19.7Z" />
	<path id="- " fill="#000000" d="M96.75 8.05L93.58 8.05L93.58 7.04L96.75 7.04L96.75 8.05Z" />
	<path id="Forma 2" class="shp2" d="M57.8 48.2L48.2 45L57.8 41.8L57.8 48.2Z" />
	<path id="µ" fill="#000000" d="M38.38 38.7L37.24 38.7L37.24 29.13L38.39 29.13L38.39 33.49Q38.39 34.36 38.72 34.81Q39.06 35.24 39.82 35.24Q40.63 35.24 41.1 34.69Q41.56 34.14 41.56 33.11L41.56 29.13L42.7 29.13L42.7 34.31Q42.7 34.79 42.82 35.02Q42.93 35.23 43.2 35.23Q43.36 35.23 43.54 35.18L43.54 36Q43.13 36.13 42.82 36.13Q42.24 36.13 41.94 35.83Q41.64 35.53 41.61 34.9L41.59 34.9Q40.92 36.13 39.69 36.13Q39.27 36.13 38.92 36Q38.58 35.87 38.38 35.63L38.38 38.7Z" />
	<path id="+" fill="#000000" d="M48.28 27.14L45.59 27.14L45.59 29.86L44.65 29.86L44.65 27.14L41.96 27.14L41.96 26.21L44.65 26.21L44.65 23.5L45.59 23.5L45.59 26.21L48.28 26.21L48.28 27.14Z" />
	<path id="e " fill="#000000" d="M135.65 30.81L130.75 30.81Q130.75 31.99 131.24 32.63Q131.73 33.27 132.67 33.27Q133.41 33.27 133.86 32.97Q134.31 32.67 134.47 32.22L135.47 32.5Q134.85 34.13 132.67 34.13Q131.15 34.13 130.35 33.22Q129.55 32.31 129.55 30.52Q129.55 28.82 130.35 27.91Q131.15 27 132.62 27Q135.65 27 135.65 30.65L135.65 30.81ZM130.76 29.93L134.47 29.93Q134.38 28.85 133.92 28.35Q133.46 27.85 132.61 27.85Q131.77 27.85 131.29 28.41Q130.8 28.96 130.76 29.93Z" />
	<path id="e " fill="#000000" d="M141.65 70.81L136.75 70.81Q136.75 71.99 137.24 72.63Q137.73 73.27 138.67 73.27Q139.41 73.27 139.86 72.97Q140.31 72.67 140.47 72.22L141.47 72.5Q140.85 74.13 138.67 74.13Q137.15 74.13 136.35 73.22Q135.55 72.31 135.55 70.52Q135.55 68.82 136.35 67.91Q137.15 67 138.62 67Q141.65 67 141.65 70.65L141.65 70.81ZM136.76 69.93L140.47 69.93Q140.38 68.85 139.92 68.35Q139.46 67.85 138.61 67.85Q137.77 67.85 137.29 68.41Q136.8 68.96 136.76 69.93Z" />
</svg>