<svg xmlns="http://www.w3.org/2000/svg" viewBox="0 0 150 90" width="349" height="209">
	<style>
		tspan { white-space:pre }
		.shp0 { fill: none;stroke: #000000;stroke-linecap:round;stroke-linejoin:round } 
		.shp1 { fill: #000000 } 
	</style>
	<path id="π" fill="#000000" d="M25 44.13Q24.27 44.13 23.95 43.77Q23.62 43.41 23.62 42.56L23.62 37.96L21.07 37.96L21.07 38.42Q21.07 39.87 20.91 41.37Q20.74 42.85 20.45 44L19.26 44Q19.59 42.69 19.77 41.23Q19.96 39.75 19.96 38.47L19.96 37.96Q19.54 37.96 19.03 38.03Q18.52 38.1 18.36 38.2L18.36 37.32Q18.51 37.24 18.85 37.19Q19.19 37.13 19.52 37.13L26.25 37.13L26.25 37.96L24.77 37.96L24.77 42.31Q24.77 42.79 24.9 43.02Q25.03 43.23 25.36 43.23L25.91 43.18L25.91 44Q25.42 44.13 25 44.13Z" />
	<path id="d " fill="#000000" d="M50.24 30.9L50.21 30.9Q49.89 31.56 49.37 31.84Q48.85 32.13 48.07 32.13Q46.77 32.13 46.16 31.25Q45.55 30.38 45.55 28.6Q45.55 25 48.07 25Q48.85 25 49.37 25.29Q49.89 25.58 50.21 26.2L50.22 26.2L50.21 25.43L50.21 22.58L51.35 22.58L51.35 30.58Q51.35 31.66 51.39 32L50.3 32Q50.28 31.9 50.26 31.53Q50.24 31.16 50.24 30.9ZM46.75 28.56Q46.75 30 47.13 30.62Q47.51 31.24 48.36 31.24Q49.34 31.24 49.77 30.57Q50.21 29.9 50.21 28.48Q50.21 27.12 49.77 26.48Q49.34 25.85 48.38 25.85Q47.51 25.85 47.13 26.49Q46.75 27.13 46.75 28.56Z" />
	<g id="Layer">
		<path id="Layer" class="shp0" d="M51.87 15.62L71.79 45.51" />
		<path id="Layer" class="shp1" d="M57.5 29.37L66.02 36.85L62.39 26.11L57.5 29.37Z" />
		<path id="Layer" class="shp0" d="M131.57 15.62L111.64 45.51" />
		<path id="Layer" class="shp1" d="M121.04 26.11L117.41 36.85L125.93 29.37L121.04 26.11Z" />
		<path id="Layer" class="shp0" d="M71.79 45.51L51.87 75.4" />
		<path id="Layer" class="shp1" d="M61.27 56L57.64 66.74L66.15 59.26L61.27 56Z" />
		<path id="Layer" class="shp0" d="M71.79 45.51C72.9 43.59 75.66 43.59 76.77 45.51C77.88 47.42 80.65 47.42 81.75 45.51C82.86 43.59 85.63 43.59 86.73 45.51C87.84 47.42 90.61 47.42 91.71 45.51C92.82 43.59 95.59 43.59 96.7 45.51C97.8 47.42 100.57 47.42 101.68 45.51C102.78 43.59 105.55 43.59 106.66 45.51C107.77 47.42 110.53 47.42 111.64 45.51" />
		<path id="Layer" class="shp0" d="M111.64 45.51L131.57 75.4" />
		<path id="Layer" class="shp1" d="M117.28 59.26L125.8 66.74L122.16 56L117.28 59.26Z" />
	</g>
	<path id="W" fill="#000000" d="M95.24 50.06L92.6 59L91.16 59L89.61 53.32Q89.45 52.79 89.16 51.41Q89 52.14 88.88 52.64Q88.77 53.13 87.15 59L85.7 59L83.07 50.06L84.33 50.06L85.94 55.74Q86.22 56.8 86.47 57.93Q86.62 57.24 86.81 56.41Q87.02 55.58 88.58 50.06L89.74 50.06L91.3 55.62Q91.65 56.99 91.85 57.93L91.91 57.71Q92.08 56.98 92.19 56.52Q92.3 56.06 93.97 50.06L95.24 50.06Z" />
	<path id="- " fill="#000000" d="M45.75 63.05L42.58 63.05L42.58 62.04L45.75 62.04L45.75 63.05Z" />
	<path id="-  copy 2" fill="#000000" d="M100.75 51.05L97.58 51.05L97.58 50.04L100.75 50.04L100.75 51.05Z" />
	<path id="-  copy 3" fill="#000000" d="M146.75 74.05L143.58 74.05L143.58 73.04L146.75 73.04L146.75 74.05Z" />
	<path id="-  copy 4" fill="#000000" d="M141.75 13.05L138.58 13.05L138.58 12.04L141.75 12.04L141.75 13.05Z" />
	<path id="-  copy" fill="#000000" d="M30.75 36.05L27.58 36.05L27.58 35.04L30.75 35.04L30.75 36.05Z" />
	<g id="Layer">
		<path id="u" fill="#000000" d="M42.23 65.13L43.37 65.13L43.37 69.49Q43.37 70.17 43.51 70.54Q43.64 70.91 43.93 71.08Q44.22 71.24 44.79 71.24Q45.61 71.24 46.09 70.68Q46.57 70.11 46.57 69.11L46.57 65.13L47.71 65.13L47.71 70.53Q47.71 71.73 47.75 72L46.67 72Q46.66 71.97 46.66 71.83Q46.65 71.69 46.64 71.51Q46.63 71.33 46.62 70.83L46.6 70.83Q46.21 71.54 45.68 71.83Q45.17 72.13 44.4 72.13Q43.27 72.13 42.75 71.57Q42.23 71 42.23 69.71L42.23 65.13Z" />
		<path id="ν" fill="#000000" d="M137.35 9.63Q137.35 10.73 136.69 12.18Q136.04 13.61 134.9 15L133.82 15L131.35 8.13L132.55 8.13L134.52 14.02Q136.21 11.82 136.21 9.69Q136.21 8.83 135.9 8.13L137.02 8.13Q137.35 8.75 137.35 9.63Z" />
	</g>
	<path id="µ" fill="#000000" d="M137.28 83.7L136.14 83.7L136.14 74.13L137.29 74.13L137.29 78.49Q137.29 79.36 137.63 79.81Q137.97 80.24 138.72 80.24Q139.54 80.24 140 79.69Q140.46 79.14 140.46 78.11L140.46 74.13L141.61 74.13L141.61 79.31Q141.61 79.79 141.72 80.02Q141.83 80.23 142.1 80.23Q142.26 80.23 142.44 80.18L142.44 81Q142.03 81.13 141.73 81.13Q141.15 81.13 140.84 80.83Q140.54 80.53 140.51 79.9L140.49 79.9Q139.82 81.13 138.6 81.13Q138.17 81.13 137.82 81Q137.48 80.87 137.28 80.63L137.28 83.7Z" />
	<path id="µ" fill="#000000" d="M137.38 24.7L136.24 24.7L136.24 15.13L137.39 15.13L137.39 19.49Q137.39 20.36 137.72 20.81Q138.06 21.24 138.82 21.24Q139.63 21.24 140.1 20.69Q140.56 20.14 140.56 19.11L140.56 15.13L141.7 15.13L141.7 20.31Q141.7 20.79 141.82 21.02Q141.93 21.23 142.2 21.23Q142.36 21.23 142.54 21.18L142.54 22Q142.13 22.13 141.82 22.13Q141.24 22.13 140.94 21.83Q140.64 21.53 140.61 20.9L140.59 20.9Q139.92 22.13 138.69 22.13Q138.27 22.13 137.92 22Q137.58 21.87 137.38 21.63L137.38 24.7Z" />
</svg>